<?xml version="1.0" encoding="UTF-8"?><svg id="a" xmlns="http://www.w3.org/2000/svg" viewBox="0 0 90 90"><defs><style>.b{fill:#010101;}</style></defs><path class="b" d="M75.2761,31.448h-19.9204v3.0254h19.9204c1.4873,0,2.6968,1.0986,2.6968,2.4492v30.6167c0,1.3506-1.2095,2.4492-2.6968,2.4492H14.7239c-1.4873,0-2.6968-1.0986-2.6968-2.4492v-30.6167c0-1.3506,1.2095-2.4492,2.6968-2.4492h26.0254c3.1553,0,5.7222-2.4561,5.7222-5.4746v-6.8812c.8691-.4786,1.4595-1.3567,1.4595-2.3729,0-1.5236-1.3123-2.7586-2.931-2.7586s-2.931,1.235-2.931,2.7586c0,.9846,.5523,1.8427,1.3771,2.3307v6.9233c0,1.3506-1.2095,2.4492-2.6968,2.4492H14.7239c-3.1553,0-5.7222,2.4561-5.7222,5.4746v30.6167c0,3.0186,2.5669,5.4746,5.7222,5.4746h60.5522c3.1553,0,5.7222-2.4561,5.7222-5.4746v-30.6167c0-3.0186-2.5669-5.4746-5.7222-5.4746Z"/><path class="b" d="M29.3188,50.8658c0,1.6185,1.3122,2.9304,2.931,2.9304s2.931-1.312,2.931-2.9304-1.3123-2.9304-2.931-2.9304-2.931,1.312-2.931,2.9304Z"/><path class="b" d="M60.6812,50.8658c0-1.6184-1.3123-2.9304-2.931-2.9304s-2.931,1.312-2.931,2.9304,1.3122,2.9304,2.931,2.9304,2.931-1.312,2.931-2.9304Z"/></svg>