<?xml version="1.0" encoding="utf-8"?>
<!-- Generator: Adobe Illustrator 24.0.2, SVG Export Plug-In . SVG Version: 6.00 Build 0)  -->
<svg version="1.1" id="Layer_1" xmlns="http://www.w3.org/2000/svg" xmlns:xlink="http://www.w3.org/1999/xlink" x="0px" y="0px"
	 viewBox="0 0 650 119" style="enable-background:new 0 0 650 119;" xml:space="preserve">
<style type="text/css">
	.st0{fill:#363945;}
	.st1{enable-background:new    ;}
</style>
<g id="Group_2" transform="translate(-623 -475)">
	<path class="st0" d="M1273,591H677c-28.1,0-51-22.9-51-51v-11c0-28.1,22.9-51,51-51h298v-3H677c-29.8,0-54,24.2-54,54v11
		c0,29.8,24.2,54,54,54h596V591z"/>
	<g class="st1">
		<path class="st0" d="M649.1,534.1c0-17.8,12.3-28.2,27-28.2c14.7,0,27,10.4,27,28.2c0,15.1-9.1,24.7-19,27v0.2H702v1.5h-26
			C661.5,562.8,649.1,552.2,649.1,534.1z M701.6,534.1c0-16.8-11.8-26.7-25.5-26.7s-25.5,9.9-25.5,26.7c0,17.1,11.8,27.2,25.5,27.2
			S701.6,551.3,701.6,534.1z"/>
		<path class="st0" d="M713.9,546.2v-25.7h1.5v25.7c0,8.6,4.7,15,15.9,15c10.7,0,19.4-8.7,19.4-20.5v-20.2h1.5V562h-1.5
			c0-2.7,0.1-8.3,0.1-13.9h-0.1c-2,8.3-10.1,14.5-19.4,14.5C718.9,562.7,713.9,555.6,713.9,546.2z"/>
		<path class="st0" d="M763.1,550.7c0-5.8,3.9-10.5,14.6-10.5h20.6v-5c0-8.7-6.6-13.9-16.5-13.9c-9.6,0-16,4.2-16,11.3
			c0,1.2,0.1,2.1,0.2,2.6h-1.5c-0.1-0.4-0.2-1.6-0.2-2.6c0-8.1,7-12.8,17.5-12.8c10.8,0,18.1,5.7,18.1,15.4V562h-1.5
			c0-2.9,0.1-8.1,0.1-12.1h-0.1c-2,7.8-9.9,12.7-19.7,12.7C769.7,562.6,763.1,558.1,763.1,550.7z M798.3,542.3v-0.6h-20.5
			c-9.9,0-13.2,3.9-13.2,9c0,6.6,6.1,10.4,13.9,10.4C790.5,561.1,798.3,554.1,798.3,542.3z"/>
		<path class="st0" d="M811.6,503.8h1.5V562h-1.5V503.8z"/>
		<path class="st0" d="M825.9,507.6h1.8v6.8h-1.8V507.6z M826,520.5h1.5V562H826V520.5z"/>
		<path class="st0" d="M842.9,548.2V522h-7.6v-1.5h6.3c0.9,0,1.3-0.4,1.3-2.2l0.1-7.2h1.3v9.4h17v1.5h-17v26.2
			c0,7.8,3.4,12.3,10.5,12.3c2.5,0,5.2-0.6,6.2-0.9v1.5c-1.1,0.3-3.9,0.9-6.2,0.9C846.6,562.1,842.9,557,842.9,548.2z"/>
		<path class="st0" d="M871.9,578.4v-1.5c0.9,0.4,2.6,0.9,4.1,0.9c5.7,0,7.7-3.9,12.7-15.8h-1l-19.3-41.5h1.8l18.7,40.3h0.2
			l16.5-40.3h1.8l-17.2,41.9c-5.1,12.9-7.7,16.9-14.2,16.9C874.5,579.3,872.7,578.8,871.9,578.4z"/>
	</g>
	<g class="st1">
		<path class="st0" d="M914.6,534.5c0-15.5,11.6-28.8,33.3-28.8c23.1,0,31.2,12.9,31.2,21.7v0.8h-7.4v-0.3c0-6.3-6.2-15.2-23.4-15.2
			c-16.7,0-25.7,9.2-25.7,21.9c0,10.9,7.5,21.6,26,21.6c15.9,0,23.5-7.4,23.5-15v-0.4h7.4v0.7c0,10.1-9.4,21.7-30.9,21.7
			C923.5,563,914.6,548.3,914.6,534.5z"/>
		<path class="st0" d="M988.6,505.1h8.4v8.9h-8.4V505.1z M989.2,520.5h7.4V562h-7.4V520.5z"/>
		<path class="st0" d="M1007.1,520.5h7.4l-0.1,13.2h0.2c2.7-8,8.8-14,21-14c13.7,0,19.6,7.6,19.6,20.2c0,2.9-0.1,5.3-0.2,6.4h-7
			c0-1,0.1-2.9,0.1-4.3c0-10.5-3.5-15.7-13.9-15.7c-12.2,0-19.7,9.6-19.7,20.5V562h-7.4V520.5z"/>
		<path class="st0" d="M1063.4,541.3c0-11.8,9-21.6,27-21.6c17.9,0,24.7,8.7,24.7,17.1h-7.1c-0.1-5.5-4.8-10.6-17.6-10.6
			c-13.3,0-19.6,6.6-19.6,15c0,7.7,5,15,19,15c13.5,0,18.4-5,18.5-10.4h7.1c0,8.1-6.7,17-25.5,17
			C1070.9,562.8,1063.4,551.8,1063.4,541.3z"/>
		<path class="st0" d="M1124.7,503.2h7.4V562h-7.4V503.2z"/>
		<path class="st0" d="M1194.2,543.3H1149c0.6,7.1,5.3,13.4,20.1,13.4c12.6,0,17.2-4,18.1-8.1h7.1c-0.7,6.7-7.9,14.3-25.1,14.3
			c-21.4,0-27.6-11.2-27.6-21.3c0-13.2,10.2-21.9,27.1-21.9c17.2,0,25.5,8,25.5,20.4V543.3z M1187.1,537.6c0-7-5.7-11.8-18.4-11.8
			c-11.8,0-18.1,4.3-19.5,12h37.9V537.6z"/>
	</g>
</g>
</svg>
